<svg version="1.2" xmlns="http://www.w3.org/2000/svg" viewBox="0 0 424 133" width="424" height="133">
	<title>fox-40</title>
	<style>
		.s0 { fill: #ffffff } 
	</style>
	<path class="s0" d="m0 115.6q0-49.5 0-98.9c0.4-0.5 0.9-1 1.2-1.6 4.3-11.4 13.2-15.1 24.8-15.1 75.9 0.1 151.9 0.1 227.8 0.1 6 0 6.1 0 6.1 6q0 60.1 0 120.3c0 5.8-0.1 6-5.8 6-77.4 0-154.9 0.1-232.3-0.1-9-0.1-16.3-4.2-19.9-13.3-0.5-1.2-1.2-2.3-1.9-3.4zm76.9-50.4c-1 25.4 19.4 47.1 45.3 48 24.8 1 46.6-19.7 47.6-45.3 1.1-25.2-19.1-48.2-43.2-49.1-27.8-1.1-48.7 18.4-49.7 46.4zm150.5 49q5.7 0 11.5 0c4.3 0 4.4-0.2 2.2-4-8.2-14.2-16.2-28.3-24.5-42.3-1.9-3.2-1.9-5.5 0-8.6 7.5-12.6 14.7-25.3 22-37.9 2.2-3.9 2.1-4-2.4-4-7.1 0-14.3 0-21.4 0-2.6-0.1-4.3 0.6-5.5 3.2-2.2 4.5-4.8 8.8-7.3 13.1-0.7 1.1-1.8 2.1-2.7 3.2-0.8-1.2-1.8-2.3-2.5-3.5-2.3-4-4.6-8.1-6.7-12.3-1.3-2.6-3.1-3.8-6.2-3.8-7.3 0.3-14.7 0.1-22 0.1-4.2 0-4.4 0.3-2.2 4.1 7.4 12.9 14.8 25.9 22.5 38.7 1.7 2.9 1.6 4.9 0 7.7-8.2 13.9-16.1 27.9-24.1 41.9-2.3 4-2.1 4.4 2.4 4.5 7 0 14-0.1 20.9 0.1 3.2 0 4.8-1.3 6.2-4 3.1-5.9 6.5-11.6 9.6-17.4 1.6-2.9 2.6-2.5 3.9 0.1 3.1 5.8 6.5 11.6 9.5 17.5 1.5 2.8 3.3 3.9 6.3 3.7 3.5-0.3 7-0.1 10.5-0.1zm-210-48q0 0 0.1 0c0 14.7 0 29.5-0.1 44.3 0 3.2 1.2 4 4.1 4 6.4-0.2 12.7-0.3 19-0.1 3.3 0.1 4.4-1 4.3-4.3-0.2-7.5 0.2-15-0.1-22.5-0.1-3.9 1.3-4.8 4.9-4.7 6.2 0.3 12.3 0 18.5 0.1 2.8 0 3.9-1 3.8-3.8q-0.2-9.5-0.1-19c0.1-2.8-0.9-3.8-3.8-3.7-5.9 0.1-11.9 0.1-17.9 0-4.9-0.1-5.1-0.2-5.1-5.1q0-1.2 0-2.5c0.1-5.2 0.1-5.3 5.2-5.3 8 0 16-0.1 23.9 0 2.7 0.1 3.6-0.8 3.4-3.4-0.4-6.1-0.9-12.3-1-18.4-0.1-3.8-1.6-4.7-5.2-4.7-16.3 0.2-32.6 0.1-48.9 0.1-4.9 0-5 0.1-5 5.1 0 14.6 0 29.2 0 43.8z"/>
	<path class="s0" d="m423.7 17.7v97.9c-1 1.6-2.1 3.2-2.9 4.9-2 4.3-5 7.8-9.5 9.1-4.5 1.3-9.4 2.3-14.1 2.3-41.6 0.2-83.2 0-124.8 0-6.6 0-6.5 0.1-6.5-6.5q0.1-33.4 0.1-66.9 0-26.6-0.1-53.3c0-3 0-5 4.1-5 44.1 0.1 88.2 0 132.3 0.2 8.3 0.1 14.9 4.2 18.7 12 0.9 1.8 1.8 3.6 2.7 5.3zm-14.5 48.9c-0.4-7.1-0.5-14.3-1.5-21.3-0.8-5.2-2.1-10.5-4.4-15.2-5.2-10.5-14.7-12.9-25.6-12.8-14.8 0.2-24 6.9-27.6 21-3.7 14.5-3 29.3-2.3 44.1 0.3 5.7 1.5 11.6 3.1 17.1 2.7 9 9 14.6 18.4 16.2 3.7 0.7 7.6 0.8 11.4 0.8 11.3 0 20.5-6.7 24.3-17.4 3.7-10.5 3.8-21.5 4.2-32.5zm-75-18.1c0 0 0 0-0.1 0 0-8.7 0.1-17.3 0-25.9 0-5.1-0.1-5.2-4.9-5.3-3.8 0-7.6 0.1-11.5 0-3-0.1-4.8 0.9-6.3 3.7-8.5 16.2-16.9 32.4-25.9 48.3-3.6 6.4-5.1 12.8-4.6 19.9 0.4 5.1 0.4 5.4 5.5 5.4 8.3 0 16.6 0.1 25-0.1 3.2-0.1 4.5 1.1 4.3 4.4-0.2 4 0 8-0.1 11.9-0.1 2.9 1.1 3.9 3.9 3.8 3-0.1 6 0 9 0 5.6 0 5.6 0 5.7-5.4q0.1-5.8 0-11.5c0-2.3 0.9-3.2 3.3-3.3 6.1-0.2 6.1-0.3 6.1-6.3q0-2 0-4c0-5.2 0-5.5-5.2-5.3-3.5 0.1-4.2-1.3-4.2-4.4 0.1-8.6 0.1-17.3 0.1-25.9z"/>
	<path class="s0" d="m115.3 66.2c0-5.7-0.1-11.3 0-17 0-1.4 0.1-2.9 0.4-4.4 0.8-4.1 4.2-7 7.9-7 3.7 0.1 7.2 3.2 7.7 7.2 0.4 4.1 0.4 8.3 0.4 12.4 0.1 8.2 0 16.3-0.1 24.4 0 1.2 0 2.4-0.1 3.5-0.6 4.8-3.7 8-7.9 8.1-4.3 0-8-3.5-8.1-8.3-0.2-6.3-0.1-12.6-0.1-18.9q0 0-0.1 0z"/>
	<path class="s0" d="m388.9 67.3c-0.4 7.8-0.7 15.6-1.4 23.4-0.2 2.6-1 5.2-1.9 7.7-1.3 3.2-4 4.7-7.4 4.8-3.5 0.1-6.5-1.2-7.6-4.6-1.2-3.9-2.3-8-2.4-12-0.2-14.1 0.1-28.3 0.4-42.3 0-2.5 0.6-5 1.3-7.4 1.2-4.1 4.3-6.3 8.4-6.3 4.2 0 6.9 1.6 8 6.1 1.2 4.8 1.8 9.7 2.1 14.7 0.4 5.3 0.1 10.6 0.1 15.9q0.2 0 0.4 0z"/>
	<path class="s0" d="m315.6 60.7c0 4.6-0.1 9.2 0 13.9 0.1 2.8-0.8 4.3-4 4.1-3.6-0.2-7.3 0-10.9 0.1-2.2 0-3.3-0.5-2.1-2.9q7.5-15.1 15-30.1c0.3-0.5 1-0.8 1.5-1.2 0.2 0.7 0.7 1.4 0.7 2.1 0.1 4.7 0 9.3 0 14 0 0-0.2 0-0.2 0z"/>
</svg>