<svg version="1.2" xmlns="http://www.w3.org/2000/svg" viewBox="0 0 120 29" width="120" height="29">
	<title>NBC</title>
	<style>
		.s0 { fill: #ffffff } 
	</style>
	<path class="s0" d="m112 28.7c-1-0.4-2.1-0.6-3.1-1-5.1-2.2-7.8-6.1-8.6-11.5-1.1-7.2 4-14.2 11.6-15.5q0.9-0.1 1.8-0.2 0.9 0 1.8 0 0.9 0.1 1.8 0.2 0.9 0.2 1.7 0.5 0.4 0.1 0.7 0.1v5.4q-0.5-0.2-1-0.4-0.6-0.3-1.2-0.6-0.6-0.2-1.3-0.3-0.6-0.1-1.3-0.2-0.6 0-1.3 0.1c-1.4 0.2-2.7 0.7-3.9 1.5-1.2 0.8-2.1 1.8-2.9 3-0.7 1.2-1.1 2.6-1.2 4-0.1 1.4 0.1 2.8 0.6 4.2 1.9 5.3 8.7 7.2 12.6 4.8q0.1 0 0.2-0.1 0.1 0 0.2-0.1 0.2 0 0.3-0.1 0.1 0 0.2 0v5.2l-3.6 1z"/>
	<path class="s0" d="m79.5 27.8v-26.8c0.4 0 0.7-0.1 1.1-0.1 3.2 0 6.5 0 9.7 0q0.4 0 0.8 0.1 0.4 0 0.8 0.1 0.4 0.1 0.8 0.2 0.4 0.1 0.8 0.3c1.1 0.4 2 1.2 2.7 2.1 0.7 0.9 1.2 2 1.4 3.1 0.1 1.1 0 2.3-0.4 3.4-0.4 1-1.1 2-2 2.7-0.2 0.2-0.4 0.4-0.7 0.6 0.5 0.4 1 0.7 1.4 1 0.9 0.7 1.6 1.5 2.1 2.4 0.5 0.9 0.8 2 0.9 3 0 1.1-0.1 2.1-0.4 3.1-0.4 1.1-0.9 2-1.7 2.7q-0.4 0.5-1 0.9-0.5 0.4-1.1 0.6-0.6 0.3-1.3 0.4-0.6 0.1-1.3 0.1-5.6 0.1-11.2 0zm5.3-4.3c1.9 0 3.7 0 5.5 0q0.1 0 0.2 0 0.1-0.1 0.2-0.1 0.1 0 0.2-0.1 0.1 0 0.2-0.1 0.8-0.4 1.2-1.1 0.5-0.7 0.6-1.5 0.2-0.9-0.1-1.7-0.2-0.8-0.8-1.4-0.2-0.2-0.4-0.4-0.2-0.1-0.5-0.3-0.2-0.1-0.5-0.1-0.3-0.1-0.6-0.1-2.2 0-4.4 0-0.1 0-0.2 0-0.1 0-0.2 0-0.1 0.1-0.2 0.1-0.1 0-0.2 0zm0-11.5c1.4 0 2.7-0.1 4 0 1.6 0.1 3.1-1.6 3.1-3.2 0-1.5-1.2-3.4-3.1-3.2q-0.3 0.1-0.6 0.1-0.4 0-0.7 0-0.3 0-0.6 0-0.4 0-0.7-0.1c-0.5 0-0.9 0-1.4 0.1z"/>
	<path class="s0" d="m59.5 12.1v15.4c-1.8 0-3.5 0-5.3 0v-27.5l16.7 15.8q0.1-0.4 0.1-0.7 0.1-0.4 0.1-0.8 0-0.3 0-0.7 0-0.4 0-0.7 0-1.5 0-3v-8.9c1.7-0.1 3.4 0 5.2 0v27.4c-5.7-5.5-11.2-10.8-16.8-16.3z"/>
	<path class="s0" d="m21.3 27.5h-16.1q-0.9 0-1.6-0.3-0.8-0.3-1.5-0.8-0.7-0.5-1.2-1.2-0.5-0.7-0.7-1.5-0.2-0.7-0.2-1.4 0-0.7 0.2-1.4 0.2-0.6 0.6-1.2 0.4-0.6 0.9-1.1 0.5-0.5 1.1-0.8 0.5-0.3 1.2-0.4 0.6-0.2 1.3-0.1 0.6 0 1.2 0.3 0.3 0.1 0.6 0.2 0.3 0.2 0.6 0.3 0.3 0.2 0.6 0.3 0.3 0.2 0.5 0.4c4 2.7 8.1 5.5 12.1 8.2q0.1 0.1 0.1 0.1 0.1 0.1 0.1 0.2 0.1 0 0.1 0.1 0.1 0 0.1 0.1z"/>
	<path class="s0" d="m26.3 25.3c2.2-5.2 4.4-10.4 6.7-15.5 0.3-0.7 0.8-1.4 1.5-1.8 0.6-0.5 1.4-0.8 2.2-0.9 0.8-0.1 1.6 0 2.3 0.2 0.8 0.3 1.4 0.8 1.9 1.4q0.8 0.8 1.1 1.8 0.4 0.9 0.4 2-0.1 1-0.6 1.9-0.4 0.9-1.3 1.6-0.1 0.1-0.3 0.3-0.1 0.1-0.3 0.3-0.1 0.1-0.3 0.2-0.2 0.1-0.4 0.3-6.1 4.1-12.3 8.1l-0.4 0.3z"/>
	<path class="s0" d="m20.1 23.7c-1.1-2.6-2.1-5-3.1-7.4q-1.7-4-3.3-8.1-0.2-0.4-0.3-0.9-0.2-0.4-0.2-0.9 0-0.5 0-1 0.1-0.5 0.2-0.9 0.3-0.9 0.8-1.6 0.5-0.7 1.3-1.2 0.8-0.4 1.7-0.6 0.8-0.2 1.7 0 0.8 0.1 1.6 0.5 0.7 0.4 1.3 1 0.5 0.6 0.8 1.4 0.3 0.8 0.3 1.6 0 0.7 0 1.3-0.1 0.6-0.1 1.2-0.1 0.6-0.2 1.2 0 0.6-0.2 1.2c-0.6 4.2-1.4 8.4-2.1 12.7 0 0.1-0.1 0.2-0.2 0.5z"/>
	<path class="s0" d="m25.2 27.1c4.6-3 9.1-6 13.8-9 2.6-1.6 4.8-1 6.5 1.7q0.5 0.8 0.7 1.8 0.2 0.9 0 1.9-0.2 1-0.7 1.8-0.6 0.8-1.4 1.3-0.3 0.2-0.6 0.4-0.4 0.2-0.7 0.3-0.3 0.1-0.7 0.1-0.4 0.1-0.7 0.1-7.7 0-15.4 0-0.1 0-0.2 0-0.1 0-0.2 0-0.1 0-0.2-0.1 0 0-0.1 0z"/>
	<path class="s0" d="m19.7 25.6q-6.2-4.3-12.5-8.7-0.5-0.3-0.9-0.7-0.4-0.4-0.8-0.9-0.3-0.4-0.6-1-0.3-0.5-0.4-1.1c-0.3-1-0.2-2.1 0.2-3 0.4-1 1.1-1.8 2-2.4 0.9-0.5 2-0.7 3-0.6 1 0.1 2 0.6 2.8 1.3q0.3 0.3 0.6 0.6 0.2 0.4 0.5 0.7 0.2 0.4 0.4 0.8 0.2 0.4 0.3 0.8l4.7 11.6q0.5 1.2 1 2.4z"/>
	<path class="s0" d="m26.1 23.6c-0.7-4.9-1.4-9.6-2.2-14.3q0-0.3 0-0.5 0-0.2 0.1-0.4 0.1-0.2 0.2-0.4 0.1-0.2 0.3-0.3c0.4-0.3 0.8-0.7 1.4-1.1l-2-0.3q-0.2-0.8 0-1.6 0.1-0.8 0.6-1.5 0.4-0.6 1.1-1.1 0.6-0.5 1.4-0.7h0.2c4.9-1 6.7 2.6 6 6q-0.1 0.4-0.3 0.8-0.1 0.4-0.2 0.8-0.2 0.4-0.3 0.8-0.2 0.4-0.4 0.8-2.7 6.4-5.5 12.7c0 0-0.2 0.1-0.4 0.3z"/>
</svg>