<svg version="1.2" xmlns="http://www.w3.org/2000/svg" viewBox="0 0 320 60" width="320" height="60">
	<title>techcrunch-wordmark</title>
	<style>
		.s0 { fill: #ffffff } 
	</style>
	<path class="s0" d="m27.4 20.7v28.5h-10.5v-28.5h-10.5v-9.2h31.6v9.2zm35 17.2h-16.7q-0.1 0.9 0.3 1.8 0.4 0.9 1.1 1.5 0.6 0.7 1.5 1 0.9 0.3 1.9 0.2 0.9 0 1.9-0.1 0.9-0.1 1.9-0.4 0.9-0.2 1.8-0.6 0.9-0.4 1.7-0.9l3.8 6.3q-1.3 0.8-2.7 1.4-1.3 0.6-2.8 1.1-1.4 0.4-2.9 0.6-1.5 0.2-3 0.2c-8.6 0-13.2-6-13.2-14.7 0-9.8 5.5-14.8 12.9-14.8 7.4 0 12.6 5.1 12.6 15.6-0.1 0.7-0.1 1.3-0.1 1.8zm-12.9-10.4c-2.2 0-3.4 1.6-3.7 4.4h8c-0.5-2.9-1.4-4.4-4.3-4.4zm30.9 22.4c-8.3 0-13.2-5.3-13.2-14.8 0-8.6 4.3-14.7 13.4-14.7 4.6-0.2 8.8 2.3 10.9 6.4l-6.7 5.1c-1.3-2.4-2.2-3.6-4.4-3.6-2.1 0-3.7 2.4-3.7 6.9 0 4.5 1.4 6.8 4 6.8 1.9 0 3.1-1 5-3.7l6.1 4.8c-3.3 4.9-6.4 6.8-11.4 6.8zm33.1-0.6v-16.1c0-3.6-1.2-4.6-3.2-4.6-2 0-3.3 1-3.3 4.5v16.2h-9.7v-35.4l9.7-3.9v12.9c2-1.7 4.5-2.6 7.1-2.5 6.2 0 9.2 4.2 9.2 11.6v17.3zm32.9 0.6c-11.2 0-17.1-8.3-17.1-19.5 0-12.1 7.2-19.4 17.1-19.4 9.3 0 13 3.9 15.6 11.1l-9.5 3.7c-1.4-3.5-2.7-5.7-6.1-5.7-4.4 0-6.3 4.3-6.3 10.3 0 6 1.9 10.4 6.4 10.4 3.3 0 4.7-1.8 6.7-5.4l8.9 4.7c-2.7 6.2-8.9 10.1-15.7 9.8zm39.6-18.2q-0.4-0.6-0.9-1-0.5-0.4-1.1-0.7-0.6-0.3-1.2-0.5-0.7-0.2-1.3-0.2c-2.4 0-3.8 1.1-3.8 4.6v15.4h-9.7v-28.2h9.7v2q1-1 2.3-1.7 1.3-0.7 2.7-0.9 1.5-0.2 2.9 0.1 1.4 0.3 2.7 1.1zm23 17.6v-1.9q-0.7 0.6-1.5 1.1-0.9 0.5-1.8 0.8-0.9 0.3-1.8 0.5-1 0.1-1.9 0.1c-6.2 0-9.2-4.2-9.2-11.6v-17.2h9.7v16c0 3.6 1.3 4.6 3.3 4.6 2 0 3.2-1 3.2-4.5v-16.1h9.8v28.3zm33 0v-16.1c0-3.7-1.3-4.6-3.3-4.6-1.9 0-3.3 0.9-3.3 4.5v16.2h-9.7v-28.2h9.7v1.9c2-1.7 4.6-2.6 7.2-2.5 6.2 0 9.1 4.1 9.1 11.6v17.3zm28.7 0.6c-8.3 0-13.3-5.3-13.3-14.9 0-8.5 4.5-14.6 13.5-14.6q1.7-0.1 3.3 0.3 1.6 0.5 3.1 1.3 1.4 0.8 2.6 2.1 1.1 1.2 1.9 2.7l-6.7 5c-1.3-2.4-2.3-3.6-4.3-3.6-2.1 0-3.8 2.4-3.8 6.9 0 4.5 1.4 6.8 4 6.8 1.8 0 3.1-1 4.9-3.7l6.2 4.8c-3.3 5-6.4 6.9-11.4 6.9zm33.1-0.6v-16.1c0-3.7-1.3-4.6-3.3-4.6-2 0-3.2 0.9-3.2 4.5v16.2h-9.7v-35.4l9.7-3.9v12.9q0.7-0.7 1.5-1.1 0.9-0.5 1.8-0.8 0.9-0.3 1.9-0.5 0.9-0.1 1.9-0.1c6.2 0 9.1 4.1 9.1 11.6v17.3z"/>
</svg>