<svg version="1.2" xmlns="http://www.w3.org/2000/svg" viewBox="0 0 298 94" width="298" height="94">
	<title>Time_Magazine_logo</title>
	<style>
		.s0 { fill: #ffffff } 
	</style>
	<path class="s0" d="m142.3 2c0 0-3.4 0-5.3 0-0.1 0.8-1 8.1-1.8 14-0.9 5.5-8.2 46-10.7 58.2-0.6 3.6-2.6 14-2.8 15-2.3 0.3-5.1 0.5-6.9 0.6-0.2 0-0.6 0.1-0.8 0.1v2.1c0.2 0 1.4 0.1 2.2 0 2 0 7.6-0.3 8.6-0.3 4 0 6.7 0.3 10.4 0.4 0.1 0 1.1-0.1 1.6-0.1v-2.1c-0.4 0-0.8 0-1 0-1.1 0-4.9-0.3-6.9-0.6 0.2-1.4 3.7-22.3 5.3-30.7 3.1-15.6 5.3-26.6 5.3-26.6l0.6 1.4 24.6 58.7 4.5 0.1c0 0 2.6-6.4 5.6-13.5 0.1-0.2 0.3-0.7 0.6-1.5 3.2-7.4 19.1-45 19.1-45 0 0 0.2 0.7 0.4 1.9 1.5 7.4 6.6 34 7.7 40.4 0.5 3.3 1 6.6 1.3 8.6 0.4 2.7 0.7 5.5 0.7 6.2-0.5 0.1-5.6 0.5-7.5 0.6-0.2 0-0.7 0-0.8 0v2.1c0.7 0 1.4 0.1 2 0.1 3.9-0.1 7.6-0.4 11.5-0.4 4.4 0 11.5 0.4 16 0.4 0.5 0 1.4 0 1.4 0v-2.2c-0.3 0-1.4-0.1-1.8-0.1-2-0.2-5.5-0.5-6.3-0.5 0 0-0.6-3.1-1.3-6.7-3-14.4-11.4-57.9-12.7-68.7-0.5-3.6-1.7-11.9-1.7-11.9h-5.1c0 0-2.6 7.4-4.9 14.2-1.6 4.6-3.8 10.3-5.5 14.7-8.2 21.7-17.5 41.9-17.5 41.9 0 0-19.6-46.9-20.7-49.6-1-2.7-7.4-21.2-7.4-21.2zm-141.2 0v4.9l-0.1 12.1 1.4-0.1 0.1-10.7c0 0 7.2 0 8.1 0h13.3 8.7v74.6 6.5h-0.2c-1.1 0.1-5.6 0.3-7.4 0.4-0.4 0-0.6 0-0.7 0v2.2c0.4 0 1.2 0 1.4 0 4.2 0 9.9-0.4 14-0.4 4.2 0 10 0.4 13.6 0.5 0.3 0 0.8-0.1 1.1-0.1v-2h-0.4c-1.2 0-7.5-0.4-8.2-0.5 0-1-0.1-5.8-0.1-5.9v-75.3h6.6 17.1l5.7 0.1c0 0.4 0.3 5.8 0.3 6 0 0.4 0.2 4.4 0.2 5.4h1.4l-0.1-12.2v-5.5c-5 0.2-17.8 0.3-37.7 0.3-17.1 0-33.6-0.1-38.1-0.3zm79.7 0l0.1 2.1c0.6 0.1 4.6 0.4 5.6 0.5 0.7 0.1 1.8 0.2 2.6 0.2 0 0.7 0 5.4 0 7.3 0.1 17.7 0 56.7 0 70.5 0 4 0 6.6 0 6.6-0.5 0.1-1.6 0.2-2.8 0.2-1 0.1-4.7 0.4-5.5 0.4v2.2c0.4 0 1 0 1.3 0 4.1 0 9.9-0.5 14.1-0.5 4.2 0 9.9 0.6 13.2 0.6 0.3 0 1-0.1 1.3-0.1v-2.2h-0.3c-0.1 0-4.4-0.2-5.5-0.3-0.5 0-2.9-0.2-2.9-0.3-0.1 0-0.1-0.7-0.1-1.7 0-1 0-2.7 0-4.6 0.1-13.9 0.1-55.3 0.1-71.1 0-3 0-5.5 0-6.8 0.9-0.1 4.7-0.5 6.1-0.6 0.1 0 1.9-0.1 2.6-0.2v-2.2c-4.6 0-10.8 0.4-15.3 0.4-4.8 0-10.6-0.4-14.6-0.4zm215.2 0.1c0 0-0.5 0-1.4 0-3.1 0-11 0-20.3 0.1-5.8 0-10.2 0.1-16.1 0.1-4.2 0-9.9 0.2-13.5 0.2-5.7-0.1-10.4-0.4-12.9-0.4-1.2 0-1.9 0-2.2 0 0 0 0 2.1 0 2.1 0.3 0.1 0.7 0.1 1.1 0.1 1.4 0.1 4.1 0.3 5.5 0.5 0.2 0 0.7 0.1 2 0.3 0 0.4 0 5.8 0 9 0 3 0 69.5 0 69.5 0 0.1-0.1 5.3-0.1 5.7-2.3 0.4-6.6 0.7-8.1 0.7h-0.5v2.1c0.2 0 1.2 0 1.8 0 2.4 0 8.5-0.4 14.8-0.4 4.4 0 9.3 0.2 14.2 0.3 6 0 12.1 0.1 17.6 0.1 9.1 0.2 16.5 0.2 18.9 0.2 0 0 0.2-16.9 0.2-18.2h-1.3c0 1.4-0.5 6.8-0.5 7-0.2 2-0.4 4.1-0.5 5.1 0 0-0.6 0.1-1 0.1-1.4 0-6.2 0.1-6.3 0.1h-21.2l-14.9-0.2-0.1-4.1-0.1-32.2c2.7 0 6.8-0.2 9.2-0.2 2.1 0 7.1-0.1 9.9-0.1 6.7 0 12.7 0.1 13.1 0.1 1.2 0 3.2 0.1 4 0.1 0 0.3 0.1 0.8 0.1 0.9 0.4 2.4 0.6 4.1 0.9 6.6q0.1 0.3 0.1 0.6h1.5c0 0 0.1-0.9 0.1-1.4-0.1-1.9-0.2-5.7-0.2-9.9 0-2.9 0.2-7.3 0.2-9.4 0-0.6-0.1-1-0.1-1.2h-1.4c0 0.5-0.1 1.2-0.1 1.2-0.1 1.6-0.6 3.6-0.9 5.7-0.1 0.3-0.2 0.7-0.2 0.7-0.2 0-4.5 0.3-4.9 0.3-0.2 0-6.6 0.1-6.7 0.1l-24.5-0.1v-35.4c0 0 3.1-0.1 4-0.1 3.5 0 9.3 0 15.2 0 8.5 0 16.9 0.1 16.9 0.1 0.1 0 2.6 0 2.6 0.1 0.1 0 3.3 0.1 4.1 0.2 0 0 0 0.2 0.1 0.6 0.3 3.7 0.6 8.1 0.7 9.7v0.6h1.4c0-2.3-0.2-9.3-0.2-13.8 0-1.4 0-2.6 0-3.3z"/>
</svg>